<svg width="58" height="58" fill="none" xmlns="http://www.w3.org/2000/svg"><circle cx="29" cy="29" r="29" fill="#E8F1FF"/><path d="M37.756 22.395l-2.496-2.493a1.893 1.893 0 00-1.343-.558c-.508 0-.986.199-1.345.558l-2.686 2.685a1.897 1.897 0 000 2.689l1.964 1.964a9.229 9.229 0 01-1.887 2.72 9.265 9.265 0 01-2.72 1.895l-1.965-1.964a1.896 1.896 0 00-2.688 0l-2.688 2.683a1.897 1.897 0 000 2.69l2.491 2.492a3.08 3.08 0 002.67.858c3.159-.52 6.293-2.2 8.821-4.727 2.527-2.524 4.205-5.656 4.732-8.825a3.085 3.085 0 00-.86-2.667z" fill="#2A87EB"/></svg>