<svg width="55" height="55" fill="none" xmlns="http://www.w3.org/2000/svg"><rect width="55" height="55" rx="6" fill="#E7F2FF"/><path fill-rule="evenodd" clip-rule="evenodd" d="M41.014 27.968c.385-1.918.518-3.678.467-4.67.5-.728 2.867-4.23 4.09-6.909l-.745-.343c-1.017 2.229-2.91 5.132-3.723 6.345-1.082-.4-6.047-1.833-12.384-2.742-6.05-.868-14.389-.391-16.227-.27-.642-1.107-2.164-3.92-2.906-6.897l-.795.2c.88 3.537 2.764 6.749 3.21 7.48a34 34 0 00-.293 5.237c-.748-2.214-1.505-4.53-1.88-5.9l-.79.219c.56 2.044 2.76 9.145 2.775 9.245.732 5.025 4.578 9.07 4.578 9.07s3.784 4.044 8.91 4.534c5.128.49 12.164-5.802 14.16-9.805.194-.387.367-.798.53-1.216l.011.008c.123-.222 3.012-5.436 3.865-7.454l.234-2c-.4.945-2.27 4.332-3.087 5.868z" fill="#90B9FE"/><path fill-rule="evenodd" clip-rule="evenodd" d="M13.642 32.68s2.947 2.493 4.902 3.044c1.957.552 5.677-2.937 8.637-3.568 2.96-.632 8.644-.2 9.81-2.983 1.168-2.784 3.31-6.114 3.31-6.114s.213 3.449-.595 7.068c-.809 3.62-2.544 4.875-5.748 8.371-3.204 3.497-7.32 3.95-10.691 3.088-3.371-.861-8.276-4.412-9.625-8.905z" fill="#6CA1FD"/></svg>