<svg width="55" height="55" fill="none" xmlns="http://www.w3.org/2000/svg"><rect width="55" height="55" rx="6" fill="#fff"/><path d="M27.5 43.542c8.86 0 16.042-7.182 16.042-16.042 0-8.86-7.182-16.041-16.042-16.041-8.86 0-16.042 7.182-16.042 16.041 0 8.86 7.182 16.042 16.042 16.042z" fill="#90B9FE"/><path d="M27.5 45C37.15 45 45 37.15 45 27.5a1.459 1.459 0 00-2.917 0c0 8.041-6.542 14.583-14.583 14.583S12.917 35.541 12.917 27.5 19.459 12.917 27.5 12.917c3.915 0 7.59 1.53 10.347 4.308a1.459 1.459 0 002.07-2.054A17.373 17.373 0 0027.5 10C17.85 10 10 17.85 10 27.5S17.85 45 27.5 45z" fill="#2A87EB"/><path d="M27.5 34.792a1.46 1.46 0 001.458-1.459V28.96h4.375a1.459 1.459 0 000-2.917h-4.375v-4.375a1.459 1.459 0 00-2.916 0v4.375h-4.375a1.459 1.459 0 000 2.916h4.375v4.376c0 .804.653 1.458 1.458 1.458z" fill="#2A87EB"/></svg>