<svg width="55" height="55" fill="none" xmlns="http://www.w3.org/2000/svg"><rect width="55" height="55" rx="6" fill="#E7F2FF"/><path style="mix-blend-mode:multiply" d="M17.944 38.403c4.837 0 8.759-.405 8.759-.905s-3.922-.905-8.76-.905c-4.837 0-8.758.405-8.758.905s3.921.905 8.759.905z" fill="url(#paint0_radial)"/><path style="mix-blend-mode:multiply" d="M37.056 38.403c4.838 0 8.76-.405 8.76-.905s-3.922-.905-8.76-.905c-4.837 0-8.759.405-8.759.905s3.922.905 8.76.905z" fill="url(#paint1_radial)"/><path d="M36.1 17.262H18.803a8.84 8.84 0 00-6.261 2.595 8.862 8.862 0 00-2.592 6.269v2.916a7.854 7.854 0 002.294 5.55 7.836 7.836 0 005.542 2.3h.372a7.984 7.984 0 006.954-4.227c.609-1.082 1.424-1.749 2.34-1.749.916 0 1.741.667 2.34 1.75a7.991 7.991 0 006.952 4.226h.371c2.08 0 4.074-.828 5.544-2.3a7.854 7.854 0 002.296-5.55v-2.916a8.875 8.875 0 00-2.593-6.268 8.851 8.851 0 00-6.26-2.596z" fill="#6CA1FD"/><path opacity=".39" d="M32.205 17.432h6.836a2.871 2.871 0 012.873 2.877v11.137h-9.709V17.43v.003z" fill="url(#paint2_linear)"/><path opacity=".39" d="M18.406 17.433h-3.551v14.014h3.551V17.433z" fill="url(#paint3_linear)"/><path opacity=".39" d="M21.194 17.433H19.42v7.727h1.774v-7.727z" fill="url(#paint4_linear)"/><path style="mix-blend-mode:multiply" d="M27.984 30.67l.207-.577a1.073 1.073 0 011.312-.653c.173.052.33.147.456.275l2.365 2.807a8.33 8.33 0 002.051 1.758l4.054 2.444s-6.355.408-8.26-3.23c-1.905-3.639-2.185-2.825-2.185-2.825z" fill="url(#paint5_linear)"/><path style="mix-blend-mode:multiply" d="M26.919 30.67l-.207-.577a1.076 1.076 0 00-1.771-.377l-2.362 2.806a8.293 8.293 0 01-2.055 1.758l-4.05 2.444s6.354.408 8.253-3.23c1.9-3.638 2.192-2.825 2.192-2.825z" fill="url(#paint6_linear)"/><path d="M37.115 37.653h-.371a8.775 8.775 0 01-7.609-4.62c-.478-.861-1.09-1.355-1.674-1.355-.584 0-1.199.494-1.677 1.356a8.784 8.784 0 01-7.608 4.62h-.39a8.604 8.604 0 01-6.077-2.527 8.626 8.626 0 01-2.52-6.085v-2.916a9.641 9.641 0 012.818-6.804 9.617 9.617 0 016.796-2.822h17.299a9.617 9.617 0 016.795 2.822 9.641 9.641 0 012.819 6.804v2.916a8.629 8.629 0 01-2.523 6.086 8.607 8.607 0 01-6.078 2.525zm-9.663-7.499c1.172 0 2.24.76 3.004 2.133a7.267 7.267 0 006.288 3.834h.371a7.081 7.081 0 005.004-2.078 7.098 7.098 0 002.075-5.01v-2.916a8.116 8.116 0 00-2.373-5.727 8.097 8.097 0 00-5.72-2.376H18.804a8.097 8.097 0 00-5.72 2.376 8.116 8.116 0 00-2.373 5.727v2.916a7.098 7.098 0 002.074 5.009 7.08 7.08 0 005.002 2.079h.372a7.252 7.252 0 006.287-3.834c.764-1.374 1.832-2.133 3.007-2.133z" fill="#2B65C9"/><path d="M10.372 24.788a.332.332 0 10-.664 0v5.08a.332.332 0 10.664 0v-5.08zm35.008 0a.332.332 0 10-.663 0v5.08a.332.332 0 10.663 0v-5.08z" fill="#174882"/><defs><linearGradient id="paint2_linear" x1="1040.73" y1="2886.28" x2="1032.43" y2="3441.7" gradientUnits="userSpaceOnUse"><stop stop-color="#C7DEFF"/><stop offset="1" stop-color="#fff" stop-opacity="0"/></linearGradient><linearGradient id="paint3_linear" x1="145.414" y1="2885.8" x2="122.779" y2="3438.9" gradientUnits="userSpaceOnUse"><stop stop-color="#C7DEFF"/><stop offset="1" stop-color="#fff" stop-opacity="0"/></linearGradient><linearGradient id="paint4_linear" x1="105.882" y1="1602.67" x2="98.157" y2="1770.72" gradientUnits="userSpaceOnUse"><stop stop-color="#C7DEFF"/><stop offset="1" stop-color="#fff" stop-opacity="0"/></linearGradient><linearGradient id="paint5_linear" x1="32.315" y1="30.276" x2="33.477" y2="34.721" gradientUnits="userSpaceOnUse"><stop stop-color="#6CA1FD" stop-opacity="0"/><stop offset=".25" stop-color="#6CA1FD" stop-opacity=".21"/><stop offset=".48" stop-color="#6CA1FD" stop-opacity=".38"/><stop offset=".7" stop-color="#6CA1FD" stop-opacity=".5"/><stop offset=".87" stop-color="#6CA1FD" stop-opacity=".58"/><stop offset="1" stop-color="#6CA1FD" stop-opacity=".6"/></linearGradient><linearGradient id="paint6_linear" x1="1226.9" y1="1849.23" x2="1206.57" y2="1959.94" gradientUnits="userSpaceOnUse"><stop stop-color="#6CA1FD" stop-opacity="0"/><stop offset=".25" stop-color="#6CA1FD" stop-opacity=".21"/><stop offset=".48" stop-color="#6CA1FD" stop-opacity=".38"/><stop offset=".7" stop-color="#6CA1FD" stop-opacity=".5"/><stop offset=".87" stop-color="#6CA1FD" stop-opacity=".58"/><stop offset="1" stop-color="#6CA1FD" stop-opacity=".6"/></linearGradient><radialGradient id="paint0_radial" cx="0" cy="0" r="1" gradientUnits="userSpaceOnUse" gradientTransform="matrix(358.417 0 0 6.29559 724.442 120.788)"><stop offset=".01" stop-color="#6CA1FD" stop-opacity=".8"/><stop offset=".12" stop-color="#6FA3FD" stop-opacity=".78"/><stop offset=".26" stop-color="#76A8FD" stop-opacity=".71"/><stop offset=".42" stop-color="#82B0FD" stop-opacity=".61"/><stop offset=".59" stop-color="#93BBFE" stop-opacity=".46"/><stop offset=".78" stop-color="#A8C9FE" stop-opacity=".27"/><stop offset=".97" stop-color="#C2DBFF" stop-opacity=".04"/><stop offset="1" stop-color="#C7DEFF" stop-opacity="0"/></radialGradient><radialGradient id="paint1_radial" cx="0" cy="0" r="1" gradientUnits="userSpaceOnUse" gradientTransform="matrix(358.417 0 0 6.29559 1843.68 120.788)"><stop offset=".01" stop-color="#6CA1FD" stop-opacity=".8"/><stop offset=".12" stop-color="#6FA3FD" stop-opacity=".78"/><stop offset=".26" stop-color="#76A8FD" stop-opacity=".71"/><stop offset=".42" stop-color="#82B0FD" stop-opacity=".61"/><stop offset=".59" stop-color="#93BBFE" stop-opacity=".46"/><stop offset=".78" stop-color="#A8C9FE" stop-opacity=".27"/><stop offset=".97" stop-color="#C2DBFF" stop-opacity=".04"/><stop offset="1" stop-color="#C7DEFF" stop-opacity="0"/></radialGradient></defs></svg>