<svg width="55" height="55" fill="none" xmlns="http://www.w3.org/2000/svg"><rect width="55" height="55" rx="6" fill="#E7F2FF"/><path d="M16.115 14.186c.661 0 1.197.651 1.197 1.456v3.431h.203v-6.885c0-.804.536-1.455 1.197-1.455.662 0 1.197.651 1.197 1.455v6.885h.204V10.73c0-.804.535-1.456 1.196-1.456.662 0 1.197.652 1.197 1.456v8.343h.204v-6.394c0-.804.535-1.456 1.197-1.456.661 0 1.197.652 1.197 1.456V39.97H14.929V15.642c-.011-.805.525-1.456 1.186-1.456z" fill="#6CA1FD"/><path d="M23.639 23.04v-4.109a1.401 1.401 0 011.392-1.522 1.398 1.398 0 011.393 1.522v21.04H20.65V27.78c0-2.161 1.24-4.003 2.988-4.74z" fill="#90B9FE"/><path d="M38.885 19.968c-.661 0-1.197.652-1.197 1.456v3.432h-.203V17.97c0-.804-.536-1.453-1.197-1.453s-1.197.652-1.197 1.453v6.885h-.203v-8.343c0-.804-.536-1.456-1.197-1.456-.662 0-1.197.652-1.197 1.456v8.343h-.204v-6.408c0-.804-.535-1.453-1.197-1.453-.661 0-1.197.652-1.197 1.453v27.308h10.175V21.424c.011-.804-.524-1.456-1.186-1.456z" fill="#6CA1FD"/><path d="M31.361 28.823v-4.107a1.403 1.403 0 00-.83-1.403 1.396 1.396 0 00-1.955 1.403v21.04h5.773V33.563a5.1 5.1 0 00-2.988-4.74z" fill="#90B9FE"/></svg>