<svg width="45" height="41" fill="none" xmlns="http://www.w3.org/2000/svg"><path d="M40.781.813h-11.25a4.22 4.22 0 00-4.218 4.218v11.25A4.22 4.22 0 0029.53 20.5h7.032v5.625a5.63 5.63 0 01-5.626 5.625h-.703c-1.169 0-2.109.94-2.109 2.11v4.218c0 1.17.94 2.11 2.11 2.11h.703C38.706 40.188 45 33.894 45 26.124V5.031A4.22 4.22 0 0040.781.813zm-25.312 0H4.219A4.22 4.22 0 000 5.03v11.25a4.22 4.22 0 004.219 4.22h7.031v5.625a5.63 5.63 0 01-5.625 5.625h-.703c-1.17 0-2.11.94-2.11 2.11v4.218c0 1.17.94 2.11 2.11 2.11h.703c7.77 0 14.063-6.294 14.063-14.063V5.031a4.22 4.22 0 00-4.22-4.218z" fill="#2A87EB"/></svg>